<svg xmlns="http://www.w3.org/2000/svg" viewBox="0 0 590.74 118.09"><defs><style>.cls-1{fill:#fff;}</style></defs><title>cover2</title><g id="Layer_2" data-name="Layer 2"><g id="Layer_1-2" data-name="Layer 1-2"><path class="cls-1" d="M56.31,59.24c-.07,1.44-.16,3.36-.27,5.43a74.61,74.61,0,0,1,8.31,2.17C71.93,69.76,76.63,77.61,76.28,87a39.86,39.86,0,0,1-8,22.73c-3.9,5.22-8.86,6.61-14.49,3.61-9.71-5.17-16-13.31-19.3-23.76-1.86-6,2.13-12.41,11.25-13.94a28.25,28.25,0,0,1-2.8,2.32c-4.43,2.71-5.3,6.72-3.79,11.26,2.59,7.82,7.63,14,14.14,18.89,4.83,3.62,9.48,2.55,12.64-2.75a37.68,37.68,0,0,0,5.18-24c-.75-6.79-5.92-10.6-14.7-10.68.7,7.22,1.4,14.38,2.1,21.53L57,92.55C56.1,89.14,55,85.77,54.29,82.3c-.71-3.73-1-7.55-1.49-12L40.21,72.46c2-6.29,7.83-5.37,12.36-7.79L51,56.05a28.5,28.5,0,0,0,2.19-5c1.5-5.54,4.63-9.53,10.12-11.43,5-1.74,9.66.14,11.23,4.41,1.88,5.09-.22,10.82-5.12,12.43C65.35,57.8,61,58.28,56.31,59.24Zm.17-5,1,1.62c3.31-.71,6.84-1,9.86-2.32,1.72-.78,3.19-3.27,3.64-5.25.25-1.11-1.7-3.8-2.86-3.92-2.21-.23-5.26.15-6.69,1.57-2.2,2.17-3.35,5.45-5,8.27Z" transform="translate(-2 0)"/><path class="cls-1" d="M172.63,48c3.16-3.39,6.59-6.58,9.42-10.22,6-7.69,9-16.17,6.12-26.11-.51-1.74.72-4,1.15-6,1.47,1.67,3.7,3.12,4.23,5,.75,2.79.37,5.92.3,8.9-.4,18.93-1,37.85-1.16,56.77,0,4.24,1.58,8.47,2.28,12.73a59,59,0,0,1,1.11,9.37c.06,7.54-2.92,12.48-8,14.06-5.43,1.67-12-1-15.9-6.77-1.34-2-2.11-4.28-3.41-7,4.62,3.19,8.21,6.43,12.39,8.39,6.54,3.07,11.25-.26,11.15-7.54a63.16,63.16,0,0,0-1.4-10.34c-1.24-6.69-2.64-13.35-4-20.13-8.65-2.7-10.53-1.27-9.6,7.83-4.09.93-5.29-1.84-5.71-4.81-.75-5.46,3.35-7.64,15.53-8.3.21-4.51.42-9.1.64-13.68s.46-9,.71-13.82L173.56,49Z" transform="translate(-2 0)"/><path class="cls-1" d="M430.13,55a3.91,3.91,0,0,0,.9.2c12.61-3.23,15.58-.87,14.47,12a32.14,32.14,0,0,1-2.43,9.59c-2.6,6.15-7.68,6.65-11.18.92a42.12,42.12,0,0,1-6.1-26.39c.87-9.7,2-19.6-3-30.68,4.75,1.12,8.5,1.38,11.66,2.89,4.79,2.28,7.47.92,10-3.32,5.25-8.62,12.48-14.71,23-15.77,4.69-.48,9.15.59,11.92,4.7s2.2,8.43-.35,13.37a6.86,6.86,0,0,1-.51-1.61c.67-10-7-16.64-18.79-10.36-4.82,2.56-9.11,6.7-12.58,11-2,2.43-1.83,6.59-2.55,10-.41,1.9-.62,3.84-.92,5.76l-1.73.08c-1-2.9-1.33-6.48-3.26-8.52s-5.47-2.55-8.6-3.86Zm11.74,10.77c-.18-2.1-.33-3.25-.37-4.4-.11-3.07-2.1-4.51-4.6-3.6s-6.75,3.45-6.53,4.51a45,45,0,0,0,5.13,12.61c1.29,2.27,3.62,1.7,4.44-.82a80.64,80.64,0,0,0,1.93-8.27Z" transform="translate(-2 0)"/><path class="cls-1" d="M482.17,78c-5.74-.89-11.7.2-13.66-6.23-.83-2.73,1.54-4.1,10.25-6.4,0-15.23-2.64-30.83,3.13-45.62l1.37.07V65l9.79-.94c.15-2.14.27-3.91.39-5.62l4.8,6.79-8.48,14.61-3.63-2.94c.75,3.36,1.56,6.7,2.25,10.07,2.1,10.39-2.64,18.88-11.76,21a8,8,0,0,1-2.92.26C466,107.15,457.44,98,456.48,90.43c4,3.43,8,7.68,12.82,10.74,8.19,5.23,14.53,2,14.92-7.76C484.43,88.33,482.89,83.09,482.17,78Zm-1.48-2.84-1.47-7-6.51,2.69a10.41,10.41,0,0,1-.07,1.48Zm11.37-5.46-.65-1h-7.23c.37,1.77.67,3.24,1.17,5.67Z" transform="translate(-2 0)"/><path class="cls-1" d="M383.51,49.23c2.89,3.5,3.92,7.76,1.54,11.72-3.8,6.35-9.82,3.65-15.48,2.59,1.56,6.78,3.76,13.4,4.43,20.18a76.86,76.86,0,0,1-.78,19.75c-1,6.07-5.37,8.91-10.55,8.56s-10-4.39-10.43-9.79a89,89,0,0,1,.37-16.88c.86-8.14,1.64-16.18-.6-24.24-.31-1.1.55-2.52.88-3.8,1.11,1,3.1,1.88,3.19,3a202.18,202.18,0,0,1,1,20.28c0,5.3-1.21,10.6-1.23,15.9,0,7.17,2.92,11,7.53,11,4.21,0,6.59-4,7-11,.51-9.64-1.38-18.84-4.57-27.86a40.93,40.93,0,0,1-1.73-6.24c-.57-3.1,1-4.42,4-3.86,2.12.4,4.18,1.17,6.29,1.58,6.31,1.22,8.39-.65,7.92-7-.09-1.23-.13-2.46-.2-3.69Z" transform="translate(-2 0)"/><path class="cls-1" d="M263.11,29.92c7.75-11.35,16.35-12.48,25.19-4.1,1.06-.64,2.19-1.3,3.29-2,7.33-4.58,13.78-2.8,15.71,5.64,1.47,6.47.59,13.47.71,20.24.06,2.89,0,5.78,0,8.6-1.1,2.85-2.16,5.9-3.45,8.84a59.69,59.69,0,0,1-4.75,9.66c-1.85,2.74-4.93,2.65-6.68,0a49.34,49.34,0,0,1-6.2-12.3c-1.43-4.78,2.14-8.41,8-9a68.45,68.45,0,0,1,7.58,0c1.79-8.1,2.9-15.8.86-23.55-1.31-5-4.56-7.35-8.12-6.14-4.19,1.44-6.14,4.35-4.71,8.94a4.61,4.61,0,0,1,.22,2.93,14.75,14.75,0,0,1-2.49,3.08c-.95-1-2.19-1.75-2.76-2.89-.48-1-.17-2.29-.19-3.45-.09-7.65-6.43-11.92-13.62-9C269.15,26.32,266.8,27.91,263.11,29.92Zm38.7,30.17c-2.16-.26-3.61-.49-5.07-.59-2.6-.18-6,0-5.46,3.22.59,3.63,3,7,4.54,10.44,1.1-.77,2.81-1.32,3.17-2.35C300.17,67.44,300.85,63.9,301.81,60.09Z" transform="translate(-2 0)"/><path class="cls-1" d="M93.23,87.55c2.54,5.32,4.27,10.82,7.51,15.21,4.07,5.52,10.6,6,14.82,2a9.45,9.45,0,0,0,2.94-5.91c.16-10.63-.06-21.26-.33-31.89,0-1.67-1-3.31-1.55-5-1.68.78-3.7,1.2-5,2.4-6.42,5.94-6.35,6-11.45-.84a20.86,20.86,0,0,0-1.92-1.84,30.65,30.65,0,0,1-3,3.81c-1.48,1.42-3.56,3.89-4.74,3.56a9.09,9.09,0,0,1-5.22-4.59C84.2,62,84.43,59,84.08,56.27l2-.53c1.31,2.74,2.61,5.48,4.46,9.34a48.93,48.93,0,0,0,3.08-5.17c1.93-4.57,4-5.16,7.72-1.84a63.19,63.19,0,0,1,4.81,5.17c1.94-1.74,3.59-3.25,5.27-4.74,4.75-4.22,9.32-3.2,10.07,3,.86,7.18.14,14.54.26,21.82.08,4.65.23,9.31.71,13.93.79,7.66-2.43,12.56-9.92,14.09-6.86,1.4-12.09-1.7-16.05-6.87S91.06,93.7,93.23,87.55Z" transform="translate(-2 0)"/><path class="cls-1" d="M135.81,101.93c5.18,6.91,10.25,9.12,15.29,6.67,4.55-2.22,7.34-9.88,5.42-15.86-3.23-10-10.2-3.18-16.85-2.91,4.53-7.71,14.4-10.66,14.76-21.28-3,1.76-5.39,3.12-7.75,4.46q-1.52.85-3.09,1.62c-6,2.88-11.75,2.1-13.85-1.87-2.81-5.31.2-13.28,6.08-16.14a10.84,10.84,0,0,1,14.63,4.57c.06.11.12.22.17.33a32.83,32.83,0,0,1,1.4,4.2c6.2-.55,7.88,1.62,5.81,7.67a31.65,31.65,0,0,1-2.58,5.38c-1,1.72-2.2,3.3-3.34,5,8.53,3.53,11.77,9.77,9.35,17.72s-10.55,12.91-18.16,11.19C137.41,111.38,135,107.76,135.81,101.93Zm1-28.85c3.64-1.61,6.61-2.42,8.91-4.14,1.2-.89,2.11-3.72,1.59-5.08-1.43-3.72-4.84-4.72-8.59-4-3.55.74-6,5-5,9,.38,1.55,2,2.75,3.11,4.22Z" transform="translate(-2 0)"/><path class="cls-1" d="M319.75,74.24c.65-7.16,1.31-14.32,2-21.58l-7.65-1.28c2.36-1.59,5.16-2.48,6-4.29.95-2-.08-4.89.08-7.37a144,144,0,0,1,1.39-14.35,17.17,17.17,0,0,1,2.87-6.28c2.5-3.79,6.19-5.81,10.7-4.65s5.94,5.23,5.9,9.37c-.09,9.22-2.76,17.76-10.78,23-5.14,3.33-5.65,7-4.23,11.17,4.62.66,9,.77,13,2.11,1.51.5,2.57,3.74,3,5.9,1,5.46-.89,8.93-5.32,10.14a20.67,20.67,0,0,0,1.23-3.76c.43-3.57,1.59-7.57-2.93-9.48-2.89-1.23-8.24,1.7-9.87,5.1a34.7,34.7,0,0,1-1.54,3.67A27.21,27.21,0,0,1,320.69,75ZM324.81,46c7.74-3,12.41-11.52,11.78-21.77-.14-2.2-1.82-4.31-2.78-6.46-2.09,1.36-4.86,2.26-6.13,4.16C322.69,29.39,324.17,37.7,324.81,46Z" transform="translate(-2 0)"/><path class="cls-1" d="M546.77,64.4,536.44,65l-.39-2c2.29-.6,4.57-1.67,6.86-1.69,3.39,0,5.14-1.5,5.14-4.63,0-6.08-.39-12.15-.42-18.23,0-1.42.76-2.84,1.17-4.26,1.08,1,3.06,2,3.1,3.06.28,6.93.14,13.87.14,21.54a54.49,54.49,0,0,1,7.28-1.22c1.38-.06,2.8.77,4.2,1.2-1.09.88-2.08,2.34-3.29,2.55-10.1,1.75-10.11,1.68-12,12.52,13.62.81,16.73,5.06,13.3,18.48a48.82,48.82,0,0,1-3.24,9.4c-2.75,5.63-6.76,6.47-11.62,2.5a63.47,63.47,0,0,1-5.71-6l.86-1.2c1.67,1,3.37,2,5,3,3.55,2.19,6.73,1.57,8.19-2.24a46.51,46.51,0,0,0,3-12.4c.32-3.88-2.13-6.54-6.15-7.26-3.56-.64-6.4,0-8,3.9-.46,1.11-2.4,1.61-3.66,2.39-.07-1.47-.6-3.12-.12-4.38C542,75,544.29,70.1,546.77,64.4Z" transform="translate(-2 0)"/><path class="cls-1" d="M573.66,69.4c2,1.87,3.75,4.35,6.13,5.41,1.9.84,5.44.83,6.66-.4s1.6-4.8.85-6.78a9.54,9.54,0,0,0-8.64-6.53c-2.07-.14-4.12-.55-6.36-.86.57-4.52,3.16-4.11,5.93-3.64,5,.85,6-.49,5.57-5.63-.52-6.55-5.31-8.65-10.7-10.65.78-1.24,1.13-2.55,1.77-2.71,6-1.51,6.71-6.75,7.25-11.3.7-6.07,0-12.29.32-18.42.14-2.65,1.23-5.26,1.89-7.89l2.57.49c-1.59,12.57,2.46,25.67-4.81,38.07,4.68,5.5,8.28,11.62,5.55,19.66-.3.88,1.16,2.48,2,3.6,5.75,7.59,3.21,16.69-5.26,18.54-3.94.85-7.53-.25-9.75-3.5-1.35-2-1.52-4.77-2.23-7.19Z" transform="translate(-2 0)"/><path class="cls-1" d="M237.44,70.45c2.19-2.55,4.71-4.68,4.39-5.25-1-1.92-2.89-4.15-4.84-4.65-3.9-1-7.52.34-10,4.34A16.07,16.07,0,0,1,229.1,68a14.54,14.54,0,0,1,1.07,5c0,.48-2.25,1.61-2.72,1.3-1.27-.82-2.78-2.13-3-3.48-1.11-5.58-4.9-6.16-9.41-5.48-5.21.78-7.36,5.47-4,9.52,2.38,2.9,5.6,5.15,8.6,7.47,3.68,2.84,7.77,5.19,11.25,8.24a8.82,8.82,0,0,1,1.91,11.74c-2.29,3.91-7.88,6.17-12.1,4.89-3.83-1.17-5.43-4-4.5-9,1,1.24,1.82,2.15,2.58,3.07,2.65,3.21,5.87,3,8.89,1,3.21-2.19,3.25-5.48,1-8.28a31.59,31.59,0,0,0-6.39-5.43c-4.17-3-8.72-5.55-12.63-8.86-4.64-3.93-5.49-8.94-3.1-13.4s6.22-6.38,12.33-4.81c3.56.92,6,0,8.69-2,6.12-4.27,11.47-4.31,16-.43,4.06,3.44,3.76,9.64-.8,11.61C241.31,71.32,239.28,70.57,237.44,70.45Z" transform="translate(-2 0)"/><path class="cls-1" d="M271.79,77.65c-9.46,2.55-12.94.06-13.72-9.63-.21-2.6-.88-5.16-1.37-7.95,2.48-1.66,4.28-1.23,5,1.83.69,2.89.7,6,1.82,8.72.77,1.84,2.93,3.1,4.48,4.62,1.48-1.75,3.81-3.32,4.26-5.3.72-3.21.19-6.7.19-10.07l1.63-.74c1.11,1.51,2.66,2.88,3.21,4.57s.16,3.63-.08,5.43a76.86,76.86,0,0,0,1.3,27.21c1,4.57.37,9.88-.9,14.48-1.32,4.83-5.57,7.2-10.81,7.25a11.4,11.4,0,0,1-10.92-6.54c-2.94-5.65-3.17-11.62-1.08-17.88.27,1.14.51,2.28.82,3.41,1,3.82,1.69,7.82,3.28,11.41s4.75,6.09,9.2,5.24c4.61-.88,6.88-4.27,7-8.54.11-4.08-.83-8.19-1.34-12.28C273.13,87.81,272.45,82.73,271.79,77.65Z" transform="translate(-2 0)"/><path class="cls-1" d="M32.58,56.61c-6,3.93-4.75,8.3-3,13,1.32,3.63.08,7.4-3.32,9.07a27.88,27.88,0,0,1-11.1,2.62c-1.23,0-3.57-3.23-3.69-5.11-.6-8.75-.78-17.55-.75-26.33,0-5.8.71-11.6,1-17.41a10.59,10.59,0,0,0-1.41-6l-7,9.83L2,35.69c2.15-4.2,4.11-8.51,6.57-12.53.67-1.09,3.17-2.1,4.21-1.67a5.5,5.5,0,0,1,2.83,4c.14,6.13-.24,12.27-.4,18.4-.24,9-.71,17.93-.49,26.87,0,2.43,1.92,5.07,3.64,7,.48.54,4.48-.62,5-1.78,1-2.46,1.58-5.7.81-8.15C22,61.13,24.19,57.18,32.58,56.61Z" transform="translate(-2 0)"/><path class="cls-1" d="M507,15.13c2,2.49,4.24,4,4.47,5.69.9,7,1.38,14.11,1.64,21.19.14,3.59-.52,7.2-.81,10.62.71.37,1,.65,1.26.63,5-.34,9.83,0,12.28,5.36,2.61,5.75,2.22,11.39-1.44,16.56-4.43,6.27-12.49,5.61-14.76-1.68-1.69-5.4-1.86-11.41-1.85-17.14,0-6.3,1.54-12.59,1.44-18.88C509.08,30.67,507.88,23.87,507,15.13Zm4.48,49.13c.39,1.89.57,4.79,1.67,7.29.68,1.54,2.74,3.36,4.24,3.41s3.71-1.85,4.12-3.31a26.19,26.19,0,0,0,.82-9.57c-.41-3.77-3-5.65-7-5.41-4.87.33-3.33,4-3.9,7.59Z" transform="translate(-2 0)"/><path class="cls-1" d="M408,54.78c-.4-11.26-.8-22.22-1.07-33.18,0-.37,1.26-.77,2.07-1.23.89,8.83,1.68,17.34,2.62,25.83.49,4.47.24,9.47,7.57,10.83l-5.46,2.58c0,2.59.15,5.24,0,7.87-.35,5.25-4.63,9.92-9.18,10.22-5.2.36-8.57-3.08-10-10.22-1.1-5.42.86-9,6.21-10.78C403.36,55.8,406.12,55.27,408,54.78Zm2.77,4.08c-5.48-.57-9.7-.12-11.08,3.93-.9,2.65-.13,6.51,1.23,9.13,1.76,3.39,5.38,3.26,6.9-.27,1.67-3.86,2-8.29,3-12.79Z" transform="translate(-2 0)"/></g></g></svg>