<svg xmlns="http://www.w3.org/2000/svg" viewBox="0 0 629.79 117.17"><defs><style>.cls-1{fill:#fff;}</style></defs><title>cover1</title><g id="Layer_2" data-name="Layer 2"><g id="Layer_1-2" data-name="Layer 1-2"><path class="cls-1" d="M603.36,36.55c7.17,1.74,11.69,0,15.5-5.72S623,17.68,619.47,13c-2.94-3.83-7.36-5.39-11.56-3.85-4.52,1.65-9.39,4.1-12.42,7.65a50.09,50.09,0,0,0-8.8,16c-3.55,10.37.68,20.72,9.83,26.52a6.31,6.31,0,0,0,2.76.36c7.19.42,14.16,1.44,21.51-1.14,5.12-1.8,9,2.88,9,8.53,0,6-4,9.34-11.07,9,1.87-1.72,4-3.13,5.37-5.06,2.8-3.84,1-7.32-3.71-7.46-3.65-.1-6.91.54-8.65,4.48-.49,1.1-2,1.73-3.08,2.57-.56-1-1.46-2-1.63-3.14-.71-4.53-4.11-3.26-7-3.61-.33,3.76-.28,7.43-1.1,10.88-.42,1.76-2.93,4.64-3.62,4.41-2.11-.69-5.28-2.6-5.35-4.16-.2-4.19,1-8.45,1.64-12.68l2.39-.89c-1.63-1.12-3.3-2.19-4.88-3.37-7.7-5.72-9.91-13.33-7.88-22.52,2.85-12.87,9.15-23.29,21.39-29,12.73-6,24.7,2.48,24,16.58-.43,9.1-6.94,16.35-15.65,17.41C607,40.94,605.91,40.44,603.36,36.55Z" transform="translate(0 -4.57)"/><path class="cls-1" d="M66.57,67.31l5.56,1.48c-.44,1.27-.79,3.57-1.33,3.62-2.1.19-4.78.35-6.29-.76-4-2.93-3-10.7,1.58-13.91,6.13-4.33,16.85-3.27,16.8,6.93,0,8.66.14,17.35.71,26a68.89,68.89,0,0,0,2.56,13.65c2.2,8,.43,13.32-5.79,15.87-8.21,3.36-15.71,1.16-19.47-5.72-7-12.89-.1-30.13,14-34.38,2.8-.84,4.27-2,3.84-5.09-.45-3.28-.48-6.64-1.09-9.89-.66-3.49-2.87-5.94-6.64-5C67.07,61.08,65.34,63.86,66.57,67.31Zm11,15.6a20.37,20.37,0,0,0-13.83,25.27,21.36,21.36,0,0,0,.83,2.32c2.45,6,7.31,8.37,13.22,6.52,3.94-1.24,5.28-5.21,4-11.44-1.37-7.45-2.73-14.92-4.2-22.67Z" transform="translate(0 -4.57)"/><path class="cls-1" d="M205.34,48.41a20,20,0,0,1-19.5-1.18c-6.86-4.09-9.48-11.78-5.19-18.45,3-4.71,7.49-8.74,12-12.2,3.88-3,8.26-1.76,11.66,1.79,5,5.25,9.62,11.83,7.31,18.67-2.54,7.54-1.31,15-2.57,22.37-.71,4.17-.18,8.62.27,12.89.36,3.5,2.55,4.39,5.67,2.54,3.83-2.27,6.63-5.39,6.1-10-.18-1.55-2.35-4-3.67-4.06-2.82-.08-3,2.24-2.36,4.73.28,1.11-.42,2.47-.68,3.71-1.2-.89-2.94-1.52-3.5-2.72-1.6-3.4.79-9.21,4.35-10.6,3.94-1.54,6.83.75,8.83,3.74,3.12,4.64,1.66,9.34-1,13.57s-6.51,8.12-12.1,7.25c-1.78-.28-4.23-3.41-4.45-5.44-.81-7.41-.81-14.91-1.09-22.37C205.3,51.48,205.34,50.32,205.34,48.41Zm-5.77-15.72a18.62,18.62,0,0,0,2.7,3.3,23,23,0,0,0,4.08,2c.62-1.58,2.15-3.5,1.7-4.67a47.84,47.84,0,0,0-6-11.71c-1.14-1.52-4.45-2.19-6.66-2-6.26.61-13.18,8.57-13.16,14.43s5.15,11.81,12.13,12.48c3.92.38,8-1.44,12.09-2.27l-.12-1.46c-5.28-1.11-7.63-4.46-6.76-10.1Z" transform="translate(0 -4.57)"/><path class="cls-1" d="M396.28,73.52a61.52,61.52,0,0,0,1.27-7.38c.18-3.9-2.24-6.26-5.94-5.29-4,1-8.57,1.7-9.41,7.41-.18,1.22-3,2-4.61,3l-3.24-7c-2.39-1.28-7.23.31-8.92,3.76-.92,1.88-3,3.19-4.57,4.75q-.89-3-1.75-6c-.09-.31-.13-.64-.27-1.37-3.81,0-7.82-.55-11.56.22-1.93.4-4.21,2.89-4.78,4.88a6.79,6.79,0,0,0,2.15,5.9,44.31,44.31,0,0,0,10.53,5.31c3.86,1.46,8,2.14,11.94,3.44,7,2.32,10.91,8.47,9.17,15.54-.6,2.45-3.19,5.67-5.39,6.14-2.52.54-5.69-1.41-8.4-2.67-.58-.27-.37-2.22-.52-3.4a27.78,27.78,0,0,1,3.25.74c1.75.61,3.44,1.38,5.17,2.08.63-1.94,1.72-3.85,1.81-5.81.19-4.41-2.46-7.06-6.47-8.4-6-2-12.05-3.68-17.94-5.89-5.26-2-9.57-5.41-9.36-11.56a11.21,11.21,0,0,1,3.58-7.5c5.13-4.19,11.18-5.72,17.71-3,.3.13.62.41.9.38,7.53-.7,15.08-1.21,22.56-2.26,3.72-.51,7.24-2.47,11-2.93,3.53-.44,7.51-.19,8.72,4.42A10.59,10.59,0,0,1,396.28,73.52Z" transform="translate(0 -4.57)"/><path class="cls-1" d="M550.26,68.26a40.25,40.25,0,0,0,2,5.44c.53,1,1.73,1.67,2.63,2.49.83-.93,2.31-1.82,2.37-2.79a16.92,16.92,0,0,0-.91-6.15,34.43,34.43,0,0,0-3-5.56c3.42-.29,6.44,0,9-.92,2.73-1,5-3.23,7.53-4.84s3.77-.4,3.78,2.21c0,3.49-.32,7-.33,10.48,0,9.46-.39,18.95.26,28.37.55,8-1.16,11.45-9.31,14.1-6.67,2.16-12.16-.89-16.28-6-4.22-5.26-6-11.24-3.24-19.12,1.21,4.35,1.42,8,3.15,10.6,2.46,3.72,5.5,7.7,9.28,9.76,6.2,3.38,12.6-2.07,12.32-9.16-.39-9.79-.23-19.61-.3-29.42v-5.9c-5.16,1-7.46,3.59-7.73,8.14-.12,2,.33,4.45-.68,5.82-1.69,2.32-4.22,5.24-6.62,5.45-1.81.16-4.59-3.19-5.76-5.57-1-2-.2-4.77-.2-7.21Z" transform="translate(0 -4.57)"/><path class="cls-1" d="M132.34,102a12.39,12.39,0,0,1-2.88,1.46c-16,3.38-32.37-10.93-31.26-27.18.51-7.36,3.94-10.31,10.48-9.79,2.38-3.6,4.15-7.18,6.74-10,3.51-3.86,8.89-4.11,13.73-1.38,4.57,2.58,6.18,6.65,4.62,11.44-1.46,4.52-3.15,9.18-5.79,13.06-3.57,5.25-7.6,5.23-12,.65-1.57-1.63-2.31-4-3.83-5.74s-3.52-3.86-5-3.62c-1.69.29-3.92,2.77-4.28,4.62-1.44,7.38.19,14.53,6.87,18.41,5.42,3.15,12,4.41,18,6.39a26.49,26.49,0,0,0,4.52.66ZM129.6,65c.24-4.68-2.24-7.24-7.21-7.46-4.58-.2-7.39,2.44-7.66,7.18-.3,5.23,3.92,12.68,7.38,13,3.19.28,7.17-6.48,7.49-12.78Z" transform="translate(0 -4.57)"/><path class="cls-1" d="M432.32,62.83H429c-.86,3.82-1.34,7.79-2.69,11.44-2.15,5.81-6.1,6.57-10.78,2.52A21.6,21.6,0,0,1,413.74,75C406.79,67.22,408,61.3,418,58.61c5.18-1.41,6.59-3.77,6.19-8.54-.47-5.63-.27-11.32-1-16.89S417.4,24.26,412,24.74a6.58,6.58,0,0,0-6.39,5.93c-.43,2.75-1.67,6.19,3.16,6.88.68.09,1.78,2.3,1.49,3.08a7.85,7.85,0,0,1-3.08,3.54c-.51.33-2.35-.45-2.83-1.2a16.82,16.82,0,0,1-1.5-16.17c2-4.9,6.44-6.5,11-6.29,5.6.26,11.31,2.19,12.7,8.5,1.3,5.92,1.53,12.11,1.83,18.19.22,4.49-1.41,9.3,3.28,12.64C432,60.2,432,61.37,432.32,62.83Zm-7.67-.54-1.94-1.82c-2.73,1.59-6.93,2.58-7.88,4.91-1.89,4.57,2.13,7.23,6.81,10.39C422.76,70.76,423.71,66.53,424.65,62.29Z" transform="translate(0 -4.57)"/><path class="cls-1" d="M39.89,32C37,42.06,30.49,48.57,21.81,47.88c2.19-1.33,3.43-2.12,4.7-2.85,7.74-4.46,14.25-12.19,10-23.25a2.42,2.42,0,0,1-.24-1.45c.63-1.71,1.4-3.37,2.12-5,1.35,1.19,3.5,2.16,3.89,3.61A95.48,95.48,0,0,1,44.6,32.16c.44,3.62.57,7.29.69,11,.11,3.48,0,7,0,10.52,8.33,4.89,9.45,7.3,7.18,15.69-1.68,6.23-6.29,10.53-10.78,10C36,78.72,30.55,72.71,30.27,66.6c-.25-5.41,2.07-9.48,7.12-11.39,2.86-1.08,3.8-2.7,3.72-5.5-.12-4,0-8-.17-12A41,41,0,0,0,39.89,32Zm1.25,26.47c-4.28,0-6.52,2.48-6.41,7,.12,5,3.79,9.71,7.54,9.75s7.09-5,7-10.07c-.14-4.33-3-6.7-8.13-6.67Z" transform="translate(0 -4.57)"/><path class="cls-1" d="M140.31,87.21c.41,2.56.69,5.15,1.28,7.67a54.59,54.59,0,0,0,2.65,9.05c2.51,5.83,6,8.18,10,7.23s8.19-6.84,8-11.64c-.53-11.43-1.23-22.85-1.93-34.26-.18-3-.83-5.77-4.72-5.77s-7.5,1.41-8.22,5.6c-.23,1.31,2.28,3.1,4.27,5.58-1.32.43-3.68,2-4.79,1.39a8.63,8.63,0,0,1-4-5.38c-.63-4.26,3.4-8.16,9-9.76,7.69-2.18,12.85,1.21,13.36,9,.2,3.14-.26,6.31-.12,9.46.28,6.61.23,13.29,1.28,19.79,1.51,9.47-3.94,18.35-13.35,20.1-4.9.91-8.38-1.51-10.73-5.56C138.13,102.62,138.78,95,140.31,87.21Z" transform="translate(0 -4.57)"/><path class="cls-1" d="M187.86,78.09c11.17.81,15.86,7.53,12.8,18.15-2.08,7.22-6.72,12.53-13,16.42-8.54,5.27-13.52,2.44-14-8.46a35.38,35.38,0,0,1,2.66,3.21c2.09,3.24,5.21,3.45,8.38,2.62,7.2-1.91,14.15-14.76,12.05-21.94-1.61-5.51-5.12-7.47-11.63-6.44-2.08.33-4.14.73-6.21,1.1L178,81.64a36.7,36.7,0,0,0,4.16-4.73c2.17-3.59,4.45-7.24,5.74-11.17.49-1.48-1.47-5.3-2.64-5.45a10.19,10.19,0,0,0-6.91,2.29c-2,1.61-1.79,4,.61,5.89.65.53.16,2.47.19,3.76-1.46-.36-4.15-.6-4.2-1.11-.37-3.63-1-7.58,0-10.91,1.27-4,5.49-5.12,9.51-4.81,3.76.29,6.76,2.31,7.53,6.17a17.66,17.66,0,0,1-.14,7.79C191.07,72.31,189.32,75,187.86,78.09Z" transform="translate(0 -4.57)"/><path class="cls-1" d="M540.89,13c-10.12,8.15-8.8,18.75-7,29.45.37,2.29.56,4.61.85,6.92.52,4.23-.08,8-4.27,9.89,2.2,3.27,4.59,6.08,6.15,9.29,3.49,7.16-.43,13.33-8.42,13a22,22,0,0,1-9.27-2.94c-2.79-1.53-3.54-4.26-1-7.39,2.33,1.82,4.41,4,6.94,5.21,1.69.82,4.65,1.14,5.88.18s1.81-4,1.27-5.72c-1.56-5-4.09-9.43-9.81-10.94-1.37-.37-3.06-1.08-3.74-2.16s-.45-3-.61-4.53c1.34,0,2.89-.51,4,0,6.92,3.11,9.46,1.43,8.79-6.38-.43-5-1.48-9.85-2.07-14.79-.77-6.47-.38-12.78,4.83-17.5,1.65-1.49,4.11-2.06,6.2-3.05Z" transform="translate(0 -4.57)"/><path class="cls-1" d="M313.44,54.83c7.16,1.72,9.26,9.42,6.14,20.32,11.23,8.22,13.53,20.85,5.68,31.2-4.23,5.58-10.42,7.52-15.73,4.92-7.76-3.79-12.58-12.07-10.77-18.79,2.59,3.67,4.77,7.55,7.7,10.75,6.38,7,12.34,6,17-2.25,3.53-6.33,2.71-19-5.4-20.11a3.29,3.29,0,0,0-.78.61c-1.77,2.34-3.84,4.84-6.78,2.46-.61-.49.85-4.59,2.23-6.32,3.71-4.61,4.25-9.57,2.84-15C314.89,60.11,314.19,57.62,313.44,54.83Z" transform="translate(0 -4.57)"/><path class="cls-1" d="M442.92,64.53c3.42-4.52,7-5,11.06-3.46,4.29,1.66,6.14,4.84,5.76,9.4-.36,4.37-2.6,7.09-6.95,7.92-6.14,1.18-12.18-2.51-14.66-9.38-4.05-11.25-2.25-22.14,5.27-31,4.79-5.63,11.8-9.4,18-13.78a6.84,6.84,0,0,1,4.76-.87c1,.18,1.69,1.84,2.52,2.84a12.86,12.86,0,0,1-2.8,1.8c-3.19,1.06-7,1.16-9.59,3-11,7.9-16.34,18.8-14.4,32.39.52,3.64,2.87,7.29,5.24,10.26.93,1.18,4.44,1.18,6.27.45,1.12-.44,2.15-3.67,1.62-5a9,9,0,0,0-4.63-4.44C448.52,63.94,446.14,64.53,442.92,64.53Z" transform="translate(0 -4.57)"/><path class="cls-1" d="M260.89,75.17c1.14-1.93,2.64-3.74,3.31-5.83.54-1.67.64-5-.07-5.27a15.29,15.29,0,0,0-7.5-1.1c-.86.08-1.86,2.6-2.08,4.11-.27,1.93.29,4,.3,6,0,5.65-4.84,9.58-9.52,6.74A37.29,37.29,0,0,1,233.94,68.7c-2.41-3.66-.87-8.1,2.91-11s12-3.1,15.48-.44c1.14.87,2.76,1.84,4,1.67,7.09-.92,11.65.44,13,4.27S267.45,72.34,260.89,75.17ZM244,66.62l2.13-2.39a30.63,30.63,0,0,0,3.06-2.62c.09-.08-.89-1.71-1.34-1.7-2.4.07-5.2-.22-7.07.92a7.24,7.24,0,0,0-2.87,5.64c.31,4.68,3.48,7.89,7.75,9.4,1.29.46,4.31-.76,4.73-1.88.51-1.4-.4-3.88-1.53-5.17S245.63,67.31,244,66.62Z" transform="translate(0 -4.57)"/><path class="cls-1" d="M490,61.64c11.06-4.71,14.44-4.45,16.23,1.18,2.46,7.71.25,14.89-4.94,16.13.67-3.15,1.76-6.28,1.88-9.46s-1-6.66-5.11-6.66c-3.69,0-6.71,1.27-6.69,6.1,0,1.4-1.94,2.82-3,4.23a43.3,43.3,0,0,1-3.89-5.06c-.83-1.46-.67-4.34-1.65-4.7-1.75-.64-4.58-.55-5.92.53s-1.19,3.66-1.49,5.63c-.34,2.24-.43,4.53-.63,6.79-1.41-2-3.51-3.75-4.09-5.94-1.24-4.72.22-9,4.59-11.62s8.56-2,12.49,1C488.52,60.43,489.27,61.07,490,61.64Z" transform="translate(0 -4.57)"/><path class="cls-1" d="M295.67,79.15c.93-3.26,1.47-5.26,2.06-7.25a8.87,8.87,0,0,0-10.62-11.29c-3.85.87-5.27,4.48-4.29,9.72.36,1.91-.2,4-.34,6-1.59-1.84-4-3.45-4.59-5.57a11,11,0,0,1,7-13.63c6.74-2.28,13.42,0,16.39,5.55S302.72,74,295.67,79.15Z" transform="translate(0 -4.57)"/><path class="cls-1" d="M3.92,55.62c7.71,1.18,13.93,8.55,14.36,15,.34,5.13-2.07,8.62-6.66,9.65-4.1.92-10.26-2.16-11.51-6-.35-1.09.23-2.49.53-4.86,1.75,1.87,2.53,2.89,3.49,3.69,2.42,2,5.2,4.79,8.3,2.38,3.43-2.68,2-6.39-.15-9.39-1.5-2.17-3.56-3.94-5.24-6C5.89,58.71,5,57.13,3.92,55.62Z" transform="translate(0 -4.57)"/></g></g></svg>