<svg xmlns="http://www.w3.org/2000/svg" viewBox="0 0 1221.74 121.74"><defs><style>.cls-1{fill:#fff;}</style></defs><g id="Layer_2" data-name="Layer 2"><g id="Layer_1-2" data-name="Layer 1"><path class="cls-1" d="M603.36,36.55c7.17,1.74,11.69,0,15.5-5.72S623,17.68,619.47,13c-2.94-3.83-7.36-5.39-11.56-3.85-4.52,1.65-9.39,4.1-12.42,7.65a50,50,0,0,0-8.8,16c-3.55,10.37.68,20.72,9.83,26.52a6.29,6.29,0,0,0,2.76.36c7.19.42,14.16,1.44,21.51-1.14,5.12-1.8,9,2.88,9,8.53,0,6-4,9.34-11.07,9,1.87-1.72,4-3.13,5.37-5.06,2.8-3.84,1-7.32-3.71-7.46-3.65-.1-6.91.54-8.65,4.48-.49,1.1-2,1.73-3.08,2.57-.56-1-1.46-2-1.63-3.14-.71-4.53-4.11-3.26-7-3.61-.33,3.76-.28,7.43-1.1,10.88-.42,1.76-2.93,4.64-3.62,4.41-2.11-.69-5.28-2.6-5.35-4.16-.2-4.19,1-8.45,1.64-12.68l2.39-.89c-1.63-1.12-3.3-2.19-4.88-3.37-7.7-5.72-9.91-13.33-7.88-22.52,2.85-12.87,9.15-23.29,21.39-29,12.73-6,24.7,2.48,24,16.58-.43,9.1-6.94,16.35-15.65,17.41C607,40.94,605.91,40.44,603.36,36.55Z"/><path class="cls-1" d="M685.31,59.24c-.07,1.44-.16,3.36-.27,5.43a74.81,74.81,0,0,1,8.31,2.17c7.58,2.92,12.28,10.77,11.93,20.11a39.87,39.87,0,0,1-8,22.73c-3.9,5.22-8.86,6.61-14.49,3.61-9.71-5.17-16.05-13.31-19.3-23.76-1.86-6,2.13-12.41,11.25-13.94a27.72,27.72,0,0,1-2.8,2.32c-4.43,2.71-5.3,6.72-3.79,11.26,2.59,7.82,7.63,14,14.14,18.89,4.83,3.62,9.48,2.55,12.64-2.75a37.68,37.68,0,0,0,5.18-24c-.75-6.79-5.92-10.6-14.7-10.68.7,7.22,1.4,14.38,2.1,21.53l-1.48.39c-.93-3.41-2.08-6.78-2.74-10.25-.71-3.73-1-7.55-1.49-12l-12.59,2.16c2-6.29,7.83-5.37,12.36-7.79L680,56.05a28.6,28.6,0,0,0,2.19-5c1.5-5.54,4.63-9.53,10.12-11.43,5-1.74,9.66.14,11.23,4.41,1.88,5.09-.22,10.82-5.12,12.43C694.35,57.8,690,58.28,685.31,59.24Zm.17-5,1,1.62c3.31-.71,6.84-.95,9.86-2.32,1.72-.78,3.19-3.27,3.64-5.25.25-1.11-1.7-3.8-2.86-3.92-2.21-.23-5.26.15-6.69,1.57C688.23,48.11,687.08,51.39,685.48,54.21Z"/><path class="cls-1" d="M801.63,48c3.16-3.39,6.59-6.58,9.42-10.22,6-7.69,9-16.17,6.12-26.11-.51-1.74.72-4,1.15-6,1.47,1.67,3.7,3.12,4.23,5,.75,2.79.37,5.92.3,8.9-.4,18.93-1,37.85-1.16,56.77,0,4.24,1.58,8.47,2.28,12.73a59.44,59.44,0,0,1,1.11,9.37c.06,7.54-2.92,12.48-8,14.06-5.43,1.67-11.95-1-15.9-6.77-1.34-2-2.11-4.28-3.41-7,4.62,3.19,8.21,6.43,12.39,8.39,6.54,3.07,11.25-.26,11.15-7.54a62.81,62.81,0,0,0-1.4-10.34c-1.24-6.69-2.64-13.35-4-20.13-8.65-2.7-10.53-1.27-9.6,7.83-4.09.93-5.29-1.84-5.71-4.81-.75-5.46,3.35-7.64,15.53-8.3.21-4.51.42-9.1.64-13.68s.46-9,.71-13.82l-14.92,12.7Z"/><path class="cls-1" d="M66.57,67.31l5.56,1.48c-.44,1.27-.79,3.57-1.33,3.62-2.1.19-4.78.35-6.29-.76-4-2.93-3-10.7,1.58-13.91,6.13-4.33,16.85-3.27,16.8,6.93,0,8.66.14,17.35.71,26a68.58,68.58,0,0,0,2.56,13.65c2.2,8,.43,13.32-5.79,15.87-8.21,3.36-15.71,1.16-19.47-5.72-7-12.89-.1-30.13,14-34.38,2.8-.84,4.27-2,3.84-5.09-.45-3.28-.48-6.64-1.09-9.89-.66-3.49-2.87-5.94-6.64-5C67.07,61.08,65.34,63.86,66.57,67.31Zm11,15.6a20.37,20.37,0,0,0-13,27.59c2.45,6,7.31,8.37,13.22,6.52,3.94-1.24,5.28-5.21,4-11.44C80.42,98.13,79.06,90.66,77.59,82.91Z"/><path class="cls-1" d="M205.34,48.41a20,20,0,0,1-19.5-1.18c-6.86-4.09-9.48-11.78-5.19-18.45,3-4.71,7.49-8.74,12-12.2,3.88-3,8.26-1.76,11.66,1.79,5,5.25,9.62,11.83,7.31,18.67-2.54,7.54-1.31,15-2.57,22.37-.71,4.17-.18,8.62.27,12.89.36,3.5,2.55,4.39,5.67,2.54,3.83-2.27,6.63-5.39,6.1-10-.18-1.55-2.35-4-3.67-4.06-2.82-.08-3,2.24-2.36,4.73.28,1.11-.42,2.47-.68,3.71-1.2-.89-2.94-1.52-3.5-2.72-1.6-3.4.79-9.21,4.35-10.6,3.94-1.54,6.83.75,8.83,3.74,3.12,4.64,1.66,9.34-1,13.57s-6.51,8.12-12.1,7.25c-1.78-.28-4.23-3.41-4.45-5.44-.81-7.41-.81-14.91-1.09-22.37C205.3,51.48,205.34,50.32,205.34,48.41Zm-5.77-15.72a18.66,18.66,0,0,0,2.7,3.3,23.24,23.24,0,0,0,4.08,2c.62-1.58,2.15-3.5,1.7-4.67a48,48,0,0,0-6-11.71c-1.14-1.52-4.45-2.19-6.66-2-6.26.61-13.18,8.57-13.16,14.43s5.15,11.81,12.13,12.48c3.92.38,8-1.44,12.09-2.27l-.12-1.46C201.05,41.68,198.7,38.33,199.57,32.69Z"/><path class="cls-1" d="M1059.13,55a4,4,0,0,0,.9.2c12.61-3.23,15.58-.87,14.47,12a32.22,32.22,0,0,1-2.43,9.59c-2.6,6.15-7.68,6.65-11.18.92a42.11,42.11,0,0,1-6.1-26.39c.87-9.7,2-19.6-3-30.68,4.75,1.12,8.5,1.38,11.66,2.89,4.79,2.28,7.47.92,10-3.32,5.25-8.62,12.48-14.71,23-15.77,4.69-.48,9.15.59,11.92,4.7s2.2,8.43-.35,13.37a7,7,0,0,1-.51-1.61c.67-10-7-16.64-18.79-10.36-4.82,2.56-9.11,6.7-12.58,11-2,2.43-1.83,6.59-2.55,10-.41,1.9-.62,3.84-.92,5.76l-1.73.08c-1-2.9-1.33-6.48-3.26-8.52s-5.47-2.55-8.6-3.86Zm11.74,10.77c-.18-2.1-.33-3.25-.37-4.4-.11-3.07-2.1-4.51-4.6-3.6s-6.75,3.45-6.53,4.51a44.75,44.75,0,0,0,5.13,12.61c1.29,2.27,3.62,1.7,4.44-.82A82.16,82.16,0,0,0,1070.87,65.8Z"/><path class="cls-1" d="M396.28,73.52a60.64,60.64,0,0,0,1.27-7.38c.18-3.9-2.24-6.26-5.94-5.29-4,1-8.57,1.7-9.41,7.41-.18,1.22-3,2-4.61,3l-3.24-7c-2.39-1.28-7.23.31-8.92,3.76-.92,1.88-3,3.19-4.57,4.75-.59-2-1.17-4-1.75-6-.09-.31-.13-.64-.27-1.37-3.81,0-7.82-.55-11.56.22-1.93.4-4.21,2.89-4.78,4.88a6.78,6.78,0,0,0,2.15,5.9,44.11,44.11,0,0,0,10.53,5.31c3.86,1.46,8,2.14,11.94,3.44,7,2.32,10.91,8.47,9.17,15.54-.6,2.45-3.19,5.67-5.39,6.14-2.52.54-5.69-1.41-8.4-2.67-.58-.27-.37-2.22-.52-3.4a27.78,27.78,0,0,1,3.25.74c1.75.61,3.44,1.38,5.17,2.08.63-1.94,1.72-3.85,1.81-5.81.19-4.41-2.46-7.06-6.47-8.4-6-2-12.05-3.68-17.94-5.89-5.26-2-9.57-5.41-9.36-11.56a11.24,11.24,0,0,1,3.58-7.5c5.13-4.19,11.18-5.72,17.71-3,.3.13.62.41.9.38,7.53-.7,15.08-1.21,22.56-2.26,3.72-.51,7.24-2.47,11-2.93,3.53-.44,7.51-.19,8.72,4.42A10.59,10.59,0,0,1,396.28,73.52Z"/><path class="cls-1" d="M1111.17,78c-5.74-.89-11.7.2-13.66-6.23-.83-2.73,1.54-4.1,10.25-6.4,0-15.23-2.64-30.83,3.13-45.62l1.37.07V65l9.79-.94c.15-2.14.27-3.91.39-5.62l4.8,6.79-8.48,14.61-3.63-2.94c.75,3.36,1.56,6.7,2.25,10.07,2.1,10.39-2.64,18.88-11.76,21a8,8,0,0,1-2.92.26c-7.68-1.08-16.26-10.24-17.22-17.8,4,3.43,8,7.68,12.82,10.74,8.19,5.23,14.53,2,14.92-7.76C1113.43,88.33,1111.89,83.09,1111.17,78Zm-1.48-2.84-1.47-7-6.51,2.69c0,.49,0,1-.07,1.48Zm11.37-5.46-.65-1h-7.23c.37,1.77.67,3.24,1.17,5.67Z"/><path class="cls-1" d="M1012.51,49.23c2.89,3.5,3.92,7.76,1.54,11.72-3.8,6.35-9.82,3.65-15.48,2.59,1.56,6.78,3.76,13.4,4.43,20.18a76.91,76.91,0,0,1-.78,19.75c-1,6.07-5.37,8.91-10.55,8.56s-10-4.39-10.43-9.79a89,89,0,0,1,.37-16.88c.86-8.14,1.64-16.18-.6-24.24-.31-1.1.55-2.52.88-3.8,1.11,1,3.1,1.88,3.19,3,.61,6.74,1.07,13.52,1,20.28,0,5.3-1.21,10.6-1.23,15.9,0,7.17,2.92,11,7.53,11,4.21,0,6.59-3.95,7-11,.51-9.64-1.38-18.84-4.57-27.86a40.93,40.93,0,0,1-1.73-6.24c-.57-3.1,1-4.42,4-3.86,2.12.4,4.18,1.17,6.29,1.58,6.31,1.22,8.39-.65,7.92-7-.09-1.23-.13-2.46-.2-3.69Z"/><path class="cls-1" d="M892.11,29.92c7.75-11.35,16.35-12.48,25.19-4.1,1.06-.64,2.19-1.3,3.29-2,7.33-4.58,13.78-2.8,15.71,5.64,1.47,6.47.59,13.47.71,20.24.06,2.89,0,5.78,0,8.6-1.1,2.85-2.16,5.9-3.45,8.84a60.14,60.14,0,0,1-4.75,9.66c-1.85,2.74-4.93,2.65-6.68,0a49.53,49.53,0,0,1-6.2-12.3c-1.43-4.78,2.14-8.41,8-9.05a70.65,70.65,0,0,1,7.58,0c1.79-8.1,2.9-15.8.86-23.55-1.31-5-4.56-7.35-8.12-6.14-4.19,1.44-6.14,4.35-4.71,8.94a4.62,4.62,0,0,1,.22,2.93,14.64,14.64,0,0,1-2.49,3.08c-.95-.95-2.19-1.75-2.76-2.89-.48-.95-.17-2.29-.19-3.45-.09-7.65-6.43-11.92-13.62-9C898.15,26.32,895.8,27.91,892.11,29.92Zm38.7,30.17c-2.16-.26-3.61-.49-5.07-.59-2.6-.18-6,0-5.46,3.22.59,3.63,3,7,4.54,10.44,1.1-.77,2.81-1.32,3.17-2.35C929.17,67.44,929.85,63.9,930.81,60.09Z"/><path class="cls-1" d="M722.23,87.55c2.54,5.32,4.27,10.82,7.51,15.21,4.07,5.52,10.6,6,14.82,2a9.49,9.49,0,0,0,2.94-5.91c.16-10.63-.06-21.26-.33-31.89,0-1.67-1-3.31-1.55-5-1.68.78-3.7,1.2-5,2.4-6.42,5.94-6.35,6-11.45-.84a20.23,20.23,0,0,0-1.92-1.84,31.47,31.47,0,0,1-3,3.81c-1.48,1.42-3.56,3.89-4.74,3.56a9.06,9.06,0,0,1-5.22-4.59c-1.09-2.42-.86-5.43-1.21-8.19l2-.53c1.31,2.74,2.61,5.48,4.46,9.34a48.31,48.31,0,0,0,3.08-5.17c1.93-4.57,4-5.16,7.72-1.84,1.61,1.42,3,3.15,4.81,5.17,1.94-1.74,3.59-3.25,5.27-4.74,4.75-4.22,9.32-3.2,10.07,3,.86,7.18.14,14.54.26,21.82.08,4.65.23,9.31.71,13.93.79,7.66-2.43,12.56-9.92,14.09-6.86,1.4-12.09-1.7-16.05-6.87S720.06,93.7,722.23,87.55Z"/><path class="cls-1" d="M764.81,101.93c5.18,6.91,10.25,9.12,15.29,6.67,4.55-2.22,7.34-9.88,5.42-15.86-3.23-10-10.2-3.18-16.85-2.91,4.53-7.71,14.4-10.66,14.76-21.28-3,1.76-5.39,3.12-7.75,4.46q-1.51.85-3.09,1.62c-6,2.88-11.75,2.1-13.85-1.87-2.81-5.31.2-13.28,6.08-16.14a10.84,10.84,0,0,1,14.8,4.9,33.91,33.91,0,0,1,1.4,4.2c6.2-.55,7.88,1.62,5.81,7.67a31.26,31.26,0,0,1-2.58,5.38c-1,1.72-2.2,3.3-3.34,5,8.53,3.53,11.77,9.77,9.35,17.72s-10.55,12.91-18.16,11.19C766.41,111.38,764,107.76,764.81,101.93Zm1-28.85c3.64-1.61,6.61-2.42,8.91-4.14,1.2-.89,2.11-3.72,1.59-5.08-1.43-3.72-4.84-4.72-8.59-4-3.55.74-6,5-5,9C763.1,70.41,764.69,71.61,765.83,73.08Z"/><path class="cls-1" d="M550.26,68.26a40.57,40.57,0,0,0,2,5.44c.53,1,1.73,1.67,2.63,2.49.83-.93,2.31-1.82,2.37-2.79a17,17,0,0,0-.91-6.15c-.6-1.82-1.8-3.44-3-5.56,3.42-.29,6.44,0,9-.92,2.73-1,5-3.23,7.53-4.84s3.77-.4,3.78,2.21c0,3.49-.32,7-.33,10.48,0,9.46-.39,18.95.26,28.37.55,8-1.16,11.45-9.31,14.1-6.67,2.16-12.16-.89-16.28-6-4.22-5.26-6-11.24-3.24-19.12,1.21,4.35,1.42,8,3.15,10.6,2.46,3.72,5.5,7.7,9.28,9.76,6.2,3.38,12.6-2.07,12.32-9.16-.39-9.79-.23-19.61-.3-29.42,0-1.79,0-3.58,0-5.9-5.16,1-7.46,3.59-7.73,8.14-.12,2,.33,4.45-.68,5.82-1.69,2.32-4.22,5.24-6.62,5.45-1.81.16-4.59-3.19-5.76-5.57-1-2-.2-4.77-.2-7.21Z"/><path class="cls-1" d="M948.75,74.24c.65-7.16,1.31-14.32,2-21.58l-7.65-1.28c2.36-1.59,5.16-2.48,6-4.29.95-2-.08-4.89.08-7.37a143.09,143.09,0,0,1,1.39-14.35,17.1,17.1,0,0,1,2.87-6.28c2.5-3.79,6.19-5.81,10.7-4.65s5.94,5.23,5.9,9.37c-.09,9.22-2.76,17.76-10.78,23-5.14,3.33-5.65,7-4.23,11.17,4.62.66,9,.77,13,2.11,1.51.5,2.57,3.74,3,5.9,1,5.46-.89,8.93-5.32,10.14a20.7,20.7,0,0,0,1.23-3.76c.43-3.57,1.59-7.57-2.93-9.48-2.89-1.23-8.24,1.7-9.87,5.1a35.38,35.38,0,0,1-1.54,3.67A27.39,27.39,0,0,1,949.69,75ZM953.81,46c7.74-3,12.41-11.52,11.78-21.77-.14-2.2-1.82-4.31-2.78-6.46-2.09,1.36-4.86,2.26-6.13,4.16C951.69,29.39,953.17,37.7,953.81,46Z"/><path class="cls-1" d="M132.34,102a12.6,12.6,0,0,1-2.88,1.46c-16,3.38-32.37-10.93-31.26-27.18.51-7.36,3.94-10.31,10.48-9.79,2.38-3.6,4.15-7.18,6.74-10,3.51-3.86,8.89-4.11,13.73-1.38,4.57,2.58,6.18,6.65,4.62,11.44-1.46,4.52-3.15,9.18-5.79,13.06-3.57,5.25-7.6,5.23-12,.65-1.57-1.63-2.31-4-3.83-5.74s-3.52-3.86-5-3.62c-1.69.29-3.92,2.77-4.28,4.62-1.44,7.38.19,14.53,6.87,18.41,5.42,3.15,11.95,4.41,18,6.39a25.92,25.92,0,0,0,4.52.66Zm-2.74-37c.24-4.68-2.24-7.24-7.21-7.46-4.58-.2-7.39,2.44-7.66,7.18-.3,5.23,3.92,12.68,7.38,13C125.3,78,129.28,71.24,129.6,64.94Z"/><path class="cls-1" d="M432.32,62.83H429c-.86,3.82-1.34,7.79-2.69,11.44-2.15,5.81-6.1,6.57-10.78,2.52A19.5,19.5,0,0,1,413.74,75C406.79,67.22,408,61.3,418,58.61c5.18-1.41,6.59-3.77,6.19-8.54-.47-5.63-.27-11.32-1-16.89s-5.79-8.92-11.18-8.44a6.58,6.58,0,0,0-6.39,5.93c-.43,2.75-1.67,6.19,3.16,6.88.68.09,1.78,2.3,1.49,3.08a7.86,7.86,0,0,1-3.08,3.54c-.51.33-2.35-.45-2.83-1.2a16.83,16.83,0,0,1-1.5-16.17c2-4.9,6.44-6.5,11-6.29,5.6.26,11.31,2.19,12.7,8.5,1.3,5.92,1.53,12.11,1.83,18.19.22,4.49-1.41,9.3,3.28,12.64C432,60.2,432,61.37,432.32,62.83Zm-7.67-.54-1.94-1.82c-2.73,1.59-6.93,2.58-7.88,4.91-1.89,4.57,2.13,7.23,6.81,10.39C422.76,70.76,423.71,66.53,424.65,62.29Z"/><path class="cls-1" d="M1175.77,64.4l-10.33.64-.39-2c2.29-.6,4.57-1.67,6.86-1.69,3.39,0,5.14-1.5,5.14-4.63,0-6.08-.39-12.15-.42-18.23,0-1.42.76-2.84,1.17-4.26,1.08,1,3.06,2,3.1,3.06.28,6.93.14,13.87.14,21.54a55.3,55.3,0,0,1,7.28-1.22c1.38-.06,2.8.77,4.2,1.2-1.09.88-2.08,2.34-3.29,2.55-10.1,1.75-10.11,1.68-12,12.52,13.62.81,16.73,5.06,13.3,18.48a49,49,0,0,1-3.24,9.4c-2.75,5.63-6.76,6.47-11.62,2.5a63.53,63.53,0,0,1-5.71-6l.86-1.2c1.67,1,3.37,1.95,5,3,3.55,2.19,6.73,1.57,8.19-2.24A46.31,46.31,0,0,0,1187,85.42c.32-3.88-2.13-6.54-6.15-7.26-3.56-.64-6.4,0-8,3.9-.46,1.11-2.4,1.61-3.66,2.39-.07-1.47-.6-3.12-.12-4.38C1171,75,1173.29,70.1,1175.77,64.4Z"/><path class="cls-1" d="M39.89,32C37,42.06,30.49,48.57,21.81,47.88c2.19-1.33,3.43-2.12,4.7-2.85,7.74-4.46,14.25-12.19,10-23.25a2.4,2.4,0,0,1-.24-1.45c.63-1.71,1.4-3.37,2.12-5,1.35,1.19,3.5,2.16,3.89,3.61a95.93,95.93,0,0,1,2.32,13.22c.44,3.62.57,7.29.69,11,.11,3.48,0,7,0,10.52,8.33,4.89,9.45,7.3,7.18,15.69-1.68,6.23-6.29,10.53-10.78,10C36,78.72,30.55,72.71,30.27,66.6c-.25-5.41,2.07-9.48,7.12-11.39,2.86-1.08,3.8-2.7,3.72-5.5-.12-4,0-8-.17-12A40.86,40.86,0,0,0,39.89,32Zm1.25,26.47c-4.28,0-6.52,2.48-6.41,7,.12,5,3.79,9.71,7.54,9.75s7.09-5,7-10.07C49.13,60.82,46.26,58.45,41.14,58.48Z"/><path class="cls-1" d="M1202.66,69.4c2,1.87,3.75,4.35,6.13,5.41,1.9.84,5.44.83,6.66-.4s1.6-4.8.85-6.78a9.54,9.54,0,0,0-8.64-6.53c-2.07-.14-4.12-.55-6.36-.86.57-4.52,3.16-4.11,5.93-3.64,5,.85,6-.49,5.57-5.63-.52-6.55-5.31-8.65-10.7-10.65.78-1.24,1.13-2.55,1.77-2.71,6-1.51,6.71-6.75,7.25-11.3.7-6.07,0-12.29.32-18.42.14-2.65,1.23-5.26,1.89-7.89l2.57.49c-1.59,12.57,2.46,25.67-4.81,38.07,4.68,5.5,8.28,11.62,5.55,19.66-.3.88,1.16,2.48,2,3.6,5.75,7.59,3.21,16.69-5.26,18.54-3.94.85-7.53-.25-9.75-3.5-1.35-2-1.52-4.77-2.23-7.19Z"/><path class="cls-1" d="M866.44,70.45c2.19-2.55,4.71-4.68,4.39-5.25-1-1.92-2.89-4.15-4.84-4.65-3.9-1-7.52.34-10,4.34A16.19,16.19,0,0,1,858.1,68a14.56,14.56,0,0,1,1.07,5c0,.48-2.25,1.61-2.72,1.3-1.27-.82-2.78-2.13-3.05-3.48-1.11-5.58-4.9-6.16-9.41-5.48-5.21.78-7.36,5.47-4,9.52,2.38,2.9,5.6,5.15,8.6,7.47,3.68,2.84,7.77,5.19,11.25,8.24a8.82,8.82,0,0,1,1.91,11.74c-2.29,3.91-7.88,6.17-12.1,4.89-3.83-1.17-5.43-4-4.5-9,1,1.24,1.82,2.15,2.58,3.07,2.65,3.21,5.87,3,8.89,1,3.21-2.19,3.25-5.48,1-8.28a31.66,31.66,0,0,0-6.39-5.43c-4.17-3-8.72-5.55-12.63-8.86-4.64-3.93-5.49-8.94-3.1-13.4s6.22-6.38,12.33-4.81c3.56.92,6,0,8.69-1.95,6.12-4.27,11.47-4.31,16-.43,4.06,3.44,3.76,9.64-.8,11.61C870.31,71.32,868.28,70.57,866.44,70.45Z"/><path class="cls-1" d="M900.79,77.65c-9.46,2.55-12.94.06-13.72-9.63-.21-2.6-.88-5.16-1.37-7.95,2.48-1.66,4.28-1.23,5,1.83.69,2.89.7,6,1.82,8.72.77,1.84,2.93,3.1,4.48,4.62,1.48-1.75,3.81-3.32,4.26-5.3.72-3.21.19-6.7.19-10.07l1.63-.74c1.11,1.51,2.66,2.88,3.21,4.57s.16,3.63-.08,5.43a77,77,0,0,0,1.3,27.21c1,4.57.37,9.88-.9,14.48-1.32,4.83-5.57,7.2-10.81,7.25a11.41,11.41,0,0,1-10.92-6.54c-2.94-5.65-3.17-11.62-1.08-17.88.27,1.14.51,2.28.82,3.41,1,3.82,1.69,7.82,3.28,11.41s4.75,6.09,9.2,5.24c4.61-.88,6.88-4.27,7-8.54.11-4.08-.83-8.19-1.34-12.28C902.13,87.81,901.45,82.73,900.79,77.65Z"/><path class="cls-1" d="M140.31,87.21c.41,2.56.69,5.15,1.28,7.67a54.42,54.42,0,0,0,2.65,9.05c2.51,5.83,6,8.18,10,7.23s8.19-6.84,8-11.64c-.53-11.43-1.23-22.85-1.93-34.26-.18-3-.83-5.77-4.72-5.77s-7.5,1.41-8.22,5.6c-.23,1.31,2.28,3.1,4.27,5.58-1.32.43-3.68,2-4.79,1.39a8.63,8.63,0,0,1-4-5.38c-.63-4.26,3.4-8.16,9-9.76,7.69-2.18,12.85,1.21,13.36,9,.2,3.14-.26,6.31-.12,9.46.28,6.61.23,13.29,1.28,19.79,1.51,9.47-3.94,18.35-13.35,20.1-4.9.91-8.38-1.51-10.73-5.56C138.13,102.62,138.78,95,140.31,87.21Z"/><path class="cls-1" d="M187.86,78.09c11.17.81,15.86,7.53,12.8,18.15-2.08,7.22-6.72,12.53-13,16.42-8.54,5.27-13.52,2.44-14-8.46a35.14,35.14,0,0,1,2.66,3.21c2.09,3.24,5.21,3.45,8.38,2.62,7.2-1.91,14.15-14.76,12.05-21.94-1.61-5.51-5.12-7.47-11.63-6.44-2.08.33-4.14.73-6.21,1.1L178,81.64c1.41-1.57,3.09-3,4.16-4.73,2.17-3.59,4.45-7.24,5.74-11.17.49-1.48-1.47-5.3-2.64-5.45a10.22,10.22,0,0,0-6.91,2.29c-2,1.61-1.79,4,.61,5.89.65.53.16,2.47.19,3.76-1.46-.36-4.15-.6-4.2-1.11-.37-3.63-1-7.58,0-10.91,1.27-4,5.49-5.12,9.51-4.81,3.76.29,6.76,2.31,7.53,6.17a17.65,17.65,0,0,1-.14,7.79C191.07,72.31,189.32,75,187.86,78.09Z"/><path class="cls-1" d="M540.89,13c-10.12,8.15-8.8,18.75-7,29.45.37,2.29.56,4.61.85,6.92.52,4.23-.08,8-4.27,9.89,2.2,3.27,4.59,6.08,6.15,9.29,3.49,7.16-.43,13.33-8.42,13a22,22,0,0,1-9.27-2.94c-2.79-1.53-3.54-4.26-1-7.39,2.33,1.82,4.41,4,6.94,5.21,1.69.82,4.65,1.14,5.88.18s1.81-4,1.27-5.72c-1.56-5-4.09-9.43-9.81-10.94-1.37-.37-3.06-1.08-3.74-2.16s-.45-3-.61-4.53c1.34,0,2.89-.51,4,0,6.92,3.11,9.46,1.43,8.79-6.38-.43-5-1.48-9.85-2.07-14.79-.77-6.47-.38-12.78,4.83-17.5,1.65-1.49,4.11-2.06,6.2-3.05Z"/><path class="cls-1" d="M313.44,54.83c7.16,1.72,9.26,9.42,6.14,20.32,11.23,8.22,13.53,20.85,5.68,31.2-4.23,5.58-10.42,7.52-15.73,4.92-7.76-3.79-12.58-12.07-10.77-18.79,2.59,3.67,4.77,7.55,7.7,10.75,6.38,7,12.34,6,17-2.25,3.53-6.33,2.71-19-5.4-20.11a3.34,3.34,0,0,0-.78.61c-1.77,2.34-3.84,4.84-6.78,2.46-.61-.49.85-4.59,2.23-6.32,3.71-4.61,4.25-9.57,2.84-15C314.89,60.11,314.19,57.62,313.44,54.83Z"/><path class="cls-1" d="M442.92,64.53c3.42-4.52,7-5,11.06-3.46,4.29,1.66,6.14,4.84,5.76,9.4-.36,4.37-2.6,7.09-6.95,7.92-6.14,1.18-12.18-2.51-14.66-9.38-4.05-11.25-2.25-22.14,5.27-31,4.79-5.63,11.8-9.4,18-13.78a6.87,6.87,0,0,1,4.76-.87c1,.18,1.69,1.84,2.52,2.84a12.8,12.8,0,0,1-2.8,1.8c-3.19,1.06-7,1.16-9.59,3-11,7.9-16.34,18.8-14.4,32.39.52,3.64,2.87,7.29,5.24,10.26.93,1.18,4.44,1.18,6.27.45,1.12-.44,2.15-3.67,1.62-5a8.93,8.93,0,0,0-4.63-4.44C448.52,63.94,446.14,64.53,442.92,64.53Z"/><path class="cls-1" d="M661.58,56.61c-6,3.93-4.75,8.3-3,13,1.32,3.63.08,7.4-3.32,9.07a27.8,27.8,0,0,1-11.1,2.62c-1.23,0-3.57-3.23-3.69-5.11-.6-8.75-.78-17.55-.75-26.33,0-5.8.71-11.6,1-17.41a10.59,10.59,0,0,0-1.41-6l-7,9.83L631,35.69c2.15-4.2,4.11-8.51,6.57-12.53.67-1.09,3.17-2.1,4.21-1.67a5.49,5.49,0,0,1,2.83,4c.14,6.13-.24,12.27-.4,18.4-.24,9-.71,17.93-.49,26.87,0,2.43,1.92,5.07,3.64,7,.48.54,4.48-.62,5-1.78,1-2.46,1.58-5.7.81-8.15C651,61.13,653.19,57.18,661.58,56.61Z"/><path class="cls-1" d="M1136,15.13c2,2.49,4.24,4,4.47,5.69.9,7,1.38,14.11,1.64,21.19.14,3.59-.52,7.2-.81,10.62.71.37,1,.65,1.26.63,5-.34,9.83,0,12.28,5.36,2.61,5.75,2.22,11.39-1.44,16.56-4.43,6.27-12.49,5.61-14.76-1.68-1.69-5.4-1.86-11.41-1.85-17.14,0-6.3,1.54-12.59,1.44-18.88C1138.08,30.67,1136.88,23.87,1136,15.13Zm4.48,49.13c.39,1.89.57,4.79,1.67,7.29.68,1.54,2.74,3.36,4.24,3.41s3.71-1.85,4.12-3.31a26.19,26.19,0,0,0,.82-9.57c-.41-3.77-3-5.65-7-5.41C1139.46,57,1141,60.67,1140.43,64.26Z"/><path class="cls-1" d="M260.89,75.17c1.14-1.93,2.64-3.74,3.31-5.83.54-1.67.64-5-.07-5.27a15.22,15.22,0,0,0-7.5-1.1c-.86.08-1.86,2.6-2.08,4.11-.27,1.93.29,4,.3,6,0,5.65-4.84,9.58-9.52,6.74a37.29,37.29,0,0,1-11.39-11.12c-2.41-3.66-.87-8.1,2.91-11s12-3.1,15.48-.44c1.14.87,2.76,1.84,4,1.67,7.09-.92,11.65.44,13,4.27S267.45,72.34,260.89,75.17ZM244,66.62l2.13-2.39a30.82,30.82,0,0,0,3.06-2.62c.09-.08-.89-1.71-1.34-1.7-2.4.07-5.2-.22-7.07.92a7.24,7.24,0,0,0-2.87,5.64c.31,4.68,3.48,7.89,7.75,9.4,1.29.46,4.31-.76,4.73-1.88.51-1.4-.4-3.88-1.53-5.17S245.63,67.31,244,66.62Z"/><path class="cls-1" d="M1037,54.78c-.4-11.26-.8-22.22-1.07-33.18,0-.37,1.26-.77,2.07-1.23.89,8.83,1.68,17.34,2.62,25.83.49,4.47.24,9.47,7.57,10.83l-5.46,2.58c0,2.59.15,5.24,0,7.87-.35,5.25-4.63,9.92-9.18,10.22-5.2.36-8.57-3.08-10-10.22-1.1-5.42.86-9,6.21-10.78C1032.36,55.8,1035.12,55.27,1037,54.78Zm2.77,4.08c-5.48-.57-9.7-.12-11.08,3.93-.9,2.65-.13,6.51,1.23,9.13,1.76,3.39,5.38,3.26,6.9-.27C1038.49,67.79,1038.81,63.36,1039.79,58.86Z"/><path class="cls-1" d="M490,61.64c11.06-4.71,14.44-4.45,16.23,1.18,2.46,7.71.25,14.89-4.94,16.13.67-3.15,1.76-6.28,1.88-9.46s-1-6.66-5.11-6.66c-3.69,0-6.71,1.27-6.69,6.1,0,1.4-1.94,2.82-3,4.23a43.38,43.38,0,0,1-3.89-5.06c-.83-1.46-.67-4.34-1.65-4.7-1.75-.64-4.58-.55-5.92.53s-1.19,3.66-1.49,5.63c-.34,2.24-.43,4.53-.63,6.79-1.41-2-3.51-3.75-4.09-5.94-1.24-4.72.22-9,4.59-11.62s8.56-2,12.49,1C488.52,60.43,489.27,61.07,490,61.64Z"/><path class="cls-1" d="M295.67,79.15c.93-3.26,1.47-5.26,2.06-7.25a8.87,8.87,0,0,0-10.62-11.29c-3.85.87-5.27,4.48-4.29,9.72.36,1.91-.2,4-.34,6-1.59-1.84-4-3.45-4.59-5.57a11,11,0,0,1,7-13.63c6.74-2.28,13.42,0,16.39,5.55S302.72,74,295.67,79.15Z"/><path class="cls-1" d="M3.92,55.62c7.71,1.18,13.93,8.55,14.36,15,.34,5.13-2.07,8.62-6.66,9.65-4.1.92-10.26-2.16-11.51-6-.35-1.09.23-2.49.53-4.86,1.75,1.87,2.53,2.89,3.49,3.69,2.42,2,5.2,4.79,8.3,2.38,3.43-2.68,2-6.39-.15-9.39-1.5-2.17-3.56-3.94-5.24-6C5.89,58.71,5,57.13,3.92,55.62Z"/></g></g></svg>