<svg xmlns="http://www.w3.org/2000/svg" viewBox="0 0 269.61 227.28"><defs></defs><g id="Layer_2" data-name="Layer 2"><g id="Layer_1-2" data-name="Layer 1"><path class="cls-1" d="M118.39,76.5H5.05a5.05,5.05,0,0,0-5,5.06V222.22a5.06,5.06,0,0,0,5.05,5.06H118.39a5.06,5.06,0,0,0,5-5.06V81.56A5.05,5.05,0,0,0,118.39,76.5Zm-5.06,140.67H10.11V86.61H113.33Z"/><path class="cls-1" d="M21.94,197.89H101.5a4,4,0,0,0,4-4V98.55a4,4,0,0,0-4-4H21.94a4,4,0,0,0-4,4v95.34A4,4,0,0,0,21.94,197.89Zm4-95.34H97.5v87.34H25.94Z"/><path class="cls-1" d="M210.16,199h37.12a4,4,0,0,0,4-4V129.22a4,4,0,0,0-4-4H210.16a4,4,0,0,0-4,4V195A4,4,0,0,0,210.16,199Zm4-65.78h29.12V191H214.16Z"/><path class="cls-1" d="M264.61,108.22H194.05a5,5,0,0,0-5,5v109a5,5,0,0,0,5,5h70.56a5,5,0,0,0,5-5v-109A5,5,0,0,0,264.61,108.22Zm-5,109H199.05v-99h60.56Z"/><circle class="cls-1" cx="61.72" cy="208.56" r="5.5"/><circle class="cls-1" cx="228.72" cy="208.56" r="5.5"/><rect class="cls-1" x="129.3" y="151.89" width="53.17" height="10"/><rect class="cls-1" x="129.3" y="200.78" width="53.17" height="10"/><path class="cls-1" d="M156.39,173.11v16.78a5,5,0,0,0,5,5h21.55v-10H166.39v-6.78h16.55v-10H161.39A5,5,0,0,0,156.39,173.11Z"/><path class="cls-1" d="M31.39,26.89A16.91,16.91,0,0,1,48.28,10H220.72a16.91,16.91,0,0,1,16.89,16.89v75.44h10V26.89A26.92,26.92,0,0,0,220.72,0H48.28A26.92,26.92,0,0,0,21.39,26.89v43h10Z"/><path class="cls-1" d="M225.83,102.33V27.44a5,5,0,0,0-5-5H48.16a5,5,0,0,0-5,5v42h10v-37H215.83v69.89Z"/></g></g></svg>