<svg xmlns="http://www.w3.org/2000/svg" viewBox="0 0 335.86 32.42"><defs><style>.cls-1{fill:#fff;}</style></defs><g id="Layer_2" data-name="Layer 2"><g id="Layer_1-2" data-name="Layer 1"><path class="cls-1" d="M331.05,2.88A13.27,13.27,0,0,0,324,.1c-8.42-1-18.64,5.09-29.46,11.5l-1.4.83C280.36,20,275.33,22.62,269.32,22a15.3,15.3,0,0,1-7.47-2.64,15.73,15.73,0,0,1-5.74-8.2,2,2,0,0,0-3.66-.38c-.92,1.66-4.35,7.14-10,8-3.07.46-5.87-.61-8.56-1.64a28.74,28.74,0,0,1-7-4c-.71-.51-1.44-1-2.25-1.57a56,56,0,0,0-18.32-7.78c-.89-.21-22-5-33.43,6.84-1.3,1.34-4.33,4.48-5,8.63-.63-4.15-3.66-7.29-5-8.63-11.45-11.84-32.54-7-33.43-6.84a56,56,0,0,0-18.32,7.78c-.81.54-1.54,1.06-2.25,1.57a28.85,28.85,0,0,1-7,4c-2.7,1-5.5,2.1-8.57,1.64-5.62-.85-9-6.33-10-8a2,2,0,0,0-3.66.38A15.73,15.73,0,0,1,74,19.35,15.27,15.27,0,0,1,66.54,22c-6,.63-11-2-23.86-9.56l-1.4-.83C30.46,5.19,20.24-.86,11.82.1a13.27,13.27,0,0,0-7,2.78C1.22,5.82-1.33,11.28.75,16a9.25,9.25,0,0,0,7.9,5.66c3,.08,6.75-1.46,7.88-5,1.19-3.74-1.39-6.86-1.69-7.21a2,2,0,0,0-3,2.62s1.43,1.7.89,3.38-2.71,2.27-4,2.23a5.28,5.28,0,0,1-4.34-3.26C3.07,11.36,5.32,7.63,7.35,6a9.2,9.2,0,0,1,4.93-1.9C19.36,3.26,29,9,39.24,15l1.4.83C53.1,23.24,59.42,26.75,67,26a19.16,19.16,0,0,0,9.37-3.35A19,19,0,0,0,82.08,16c2.19,2.79,5.73,6,10.7,6.75,4.12.62,7.56-.7,10.6-1.86a32.45,32.45,0,0,0,7.91-4.46c.68-.48,1.38-1,2.2-1.53a53.2,53.2,0,0,1,17-7.18c.81-.19,19.76-4.49,29.65,5.74,1.33,1.37,4.45,4.6,3.88,8.3-.53,3.37-4,7-7.85,6.68-2.57-.17-5.6-2-6-4.71-.18-1.24.14-3.52,1.76-4.34,1.2-.6,3.16-.46,3.89.63a2.52,2.52,0,0,1,.31,1.7,2,2,0,1,0,4,.52,6.46,6.46,0,0,0-.95-4.46c-2-3-6.25-3.35-9-2-3.29,1.67-4.33,5.57-3.91,8.49.69,4.72,5.46,7.84,9.68,8.12.24,0,.47,0,.71,0,5.89,0,10.58-5.08,11.36-10.09.78,5,5.47,10.09,11.36,10.09.24,0,.47,0,.71,0,4.22-.28,9-3.4,9.68-8.12.42-2.92-.62-6.82-3.91-8.49-2.76-1.39-7-1-9,2a6.46,6.46,0,0,0-.95,4.46,2,2,0,0,0,4-.52,2.45,2.45,0,0,1,.3-1.7c.73-1.09,2.69-1.23,3.89-.63,1.62.82,1.94,3.1,1.76,4.34-.39,2.69-3.41,4.54-6,4.71-3.89.27-7.32-3.31-7.85-6.68-.57-3.7,2.55-6.93,3.88-8.3,9.89-10.23,28.85-5.93,29.65-5.74a53.2,53.2,0,0,1,17,7.18c.82.55,1.53,1.05,2.2,1.53a32.45,32.45,0,0,0,7.91,4.46c3,1.16,6.48,2.48,10.6,1.86,5-.75,8.51-4,10.71-6.75a18.87,18.87,0,0,0,5.75,6.66A19.16,19.16,0,0,0,268.91,26c7.53.78,13.85-2.73,26.31-10.1l1.4-.83c10.22-6.06,19.88-11.78,27-11A9.25,9.25,0,0,1,328.52,6c2,1.65,4.27,5.38,2.93,8.45a5.28,5.28,0,0,1-4.34,3.26c-1.25,0-3.43-.55-4-2.23s.88-3.36.89-3.38a2,2,0,0,0-3-2.62c-.3.35-2.88,3.47-1.69,7.21,1.13,3.56,4.87,5.1,7.88,5a9.25,9.25,0,0,0,7.9-5.66C337.19,11.28,334.64,5.82,331.05,2.88Z"/></g></g></svg>